HIERARCHY
ROOT Hips
{
	OFFSET -1.974227 105.409012 -3.279584
	CHANNELS 6 Xposition Yposition Zposition Xrotation Yrotation Zrotation
	JOINT Chest
	{
		OFFSET 2.940344 13.303650 0.722150
		CHANNELS 3 Xrotation Yrotation Zrotation
		JOINT Chest2
		{
			OFFSET 3.179612 20.824432 3.911462
			CHANNELS 3 Xrotation Yrotation Zrotation
			JOINT Chest3
			{
				OFFSET 0.627476 14.912262 -0.224742
				CHANNELS 3 Xrotation Yrotation Zrotation
				JOINT Neck
				{
					OFFSET 0.274185 17.230911 1.279223
					CHANNELS 3 Xrotation Yrotation Zrotation
					JOINT Head
					{
						OFFSET -1.654283 10.119263 2.166015
						CHANNELS 3 Xrotation Yrotation Zrotation
						End Site
						{
							OFFSET -1.645926 10.135513 2.095232
						}
					}
				}
				JOINT LeftCollar
				{
					OFFSET 4.784082 12.980515 3.228499
					CHANNELS 3 Xrotation Yrotation Zrotation
					JOINT LeftUpArm
					{
						OFFSET 14.532368 5.593704 -8.125284
						CHANNELS 3 Xrotation Yrotation Zrotation
						JOINT LeftLowArm
						{
							OFFSET 23.061132 20.128693 14.238941
							CHANNELS 3 Xrotation Yrotation Zrotation
							JOINT LeftHand
							{
								OFFSET -26.345043 7.511490 12.266379
								CHANNELS 3 Xrotation Yrotation Zrotation
								End Site
								{
									OFFSET -5.757849 1.641724 2.680883
								}
							}
						}
					}
				}
				JOINT RightCollar
				{
					OFFSET -3.546612 13.024231 4.427121
					CHANNELS 3 Xrotation Yrotation Zrotation
					JOINT RightUpArm
					{
						OFFSET -16.918751 -3.628159 -3.014737
						CHANNELS 3 Xrotation Yrotation Zrotation
						JOINT RightLowArm
						{
							OFFSET -18.383831 -12.365417 25.472832
							CHANNELS 3 Xrotation Yrotation Zrotation
							JOINT RightHand
							{
								OFFSET 14.207071 26.267685 3.020452
								CHANNELS 3 Xrotation Yrotation Zrotation
								End Site
								{
									OFFSET 3.105106 5.741058 0.660149
								}
							}
						}
					}
				}
			}
		}
	}
	JOINT LeftUpLeg
	{
		OFFSET 9.778581 -2.134796 -0.491065
		CHANNELS 3 Xrotation Yrotation Zrotation
		JOINT LeftLowLeg
		{
			OFFSET 0.759645 -41.148338 23.456907
			CHANNELS 3 Xrotation Yrotation Zrotation
			JOINT LeftFoot
			{
				OFFSET -20.677874 -37.024258 -14.219643
				CHANNELS 3 Xrotation Yrotation Zrotation
				JOINT LeftToe
				{
					OFFSET -8.684329 -19.317760 10.534050
					CHANNELS 3 Xrotation Yrotation Zrotation
					End Site
					{
						OFFSET -1.142078 -10.268087 21.279589
					}
				}
			}
		}
	}
	JOINT RightUpLeg
	{
		OFFSET -9.778626 2.134605 0.491054
		CHANNELS 3 Xrotation Yrotation Zrotation
		JOINT RightLowLeg
		{
			OFFSET -0.354685 -47.176979 4.268290
			CHANNELS 3 Xrotation Yrotation Zrotation
			JOINT RightFoot
			{
				OFFSET 6.218884 -40.711609 -17.449051
				CHANNELS 3 Xrotation Yrotation Zrotation
				JOINT RightToe
				{
					OFFSET -0.264692 -18.907640 14.212238
					CHANNELS 3 Xrotation Yrotation Zrotation
					End Site
					{
						OFFSET -5.281231 -6.077994 22.242361
					}
				}
			}
		}
	}
}
MOTION
Frames: 8
Frame Time: 0.033333
-3.535409 99.609230 -5.073461 4.900414 4.797937 -5.691194 1.022407 -0.877842 0.468231 0.466201 -3.856257 5.682086 -1.696615 0.093190 -0.887526 1.196601 -5.469557 3.998631 0.000000 -0.000001 0.000001 4.715389 0.732833 11.744319 -1.208237 12.600237 7.044118 -56.122261 23.727698 -12.199070 -0.000005 0.000000 0.000001 2.117102 -6.326292 0.621470 9.807007 -11.358267 -3.670081 30.245573 20.937528 -23.926072 -0.000003 -0.000001 0.000003 -1.058984 1.743456 7.648629 4.125664 -4.089870 -24.066677 1.704260 -22.287667 -11.442811 0.000004 0.000001 0.000002 -13.871796 1.542001 6.464554 14.222146 0.212855 3.810200 -6.176412 -7.452105 -4.468747 0.000001 -0.000001 0.000000 
-3.539738 99.568321 -5.093125 4.775600 4.755342 -5.577223 1.779015 -1.022392 0.503275 -0.053441 -3.763590 5.624945 -1.329459 0.287459 -0.796047 1.157233 -5.514010 4.014608 -0.000001 0.000000 0.000001 4.710952 0.431506 12.059238 -1.358842 12.582542 7.108123 -53.788819 23.776986 -12.526108 0.000004 0.000001 -0.000002 1.778679 -6.426902 0.447405 9.722928 -11.008362 -3.263322 31.214979 21.024166 -23.984223 -0.000001 0.000000 -0.000002 -0.850394 1.704455 7.988222 3.816898 -4.141651 -24.882861 2.371162 -21.974904 -10.974637 0.000003 0.000001 0.000002 -13.974090 1.631676 6.442649 14.635316 0.390871 3.659841 -5.779864 -7.229086 -4.356619 0.000001 -0.000001 0.000000 
-3.541086 99.522285 -5.117265 4.257426 5.126053 -5.463361 1.742431 -1.016624 0.478405 -0.417773 -3.923556 5.841216 -1.180626 -0.245802 -0.979271 1.970991 -5.442877 3.897226 -0.000001 0.000000 0.000002 4.864344 0.128624 12.286989 -1.368560 12.758775 7.144969 -53.455642 25.248238 -12.988483 -0.000004 0.000003 -0.000001 1.840625 -6.339277 0.766288 9.885417 -11.132237 -3.110981 32.698308 21.674828 -25.125184 -0.000003 -0.000000 0.000003 -0.763065 1.674658 8.085754 4.008081 -4.342007 -25.215595 2.898595 -21.921605 -10.735187 0.000003 0.000004 0.000001 -13.044280 1.585838 6.347769 14.182690 0.312684 3.635771 -5.479083 -7.123604 -4.245376 0.000002 -0.000001 -0.000000 
-3.536653 99.478622 -5.147570 4.395905 5.055223 -5.329284 1.066837 -0.849928 0.447214 0.352153 -4.044898 5.870443 -1.504185 -0.260400 -0.999601 2.232054 -5.424292 3.668978 -0.000002 0.000000 0.000001 4.652685 0.170650 12.490056 -1.377061 12.653465 7.001491 -52.589639 24.837826 -13.080868 -0.000003 0.000002 0.000002 1.795166 -5.908613 0.670192 10.069445 -11.625432 -2.924138 33.158495 22.104970 -25.638160 -0.000002 -0.000000 0.000003 -1.588729 1.668803 8.338655 3.991922 -4.408490 -26.032185 3.000574 -21.783572 -10.584673 0.000004 -0.000002 0.000003 -13.443293 1.694766 6.061488 14.403711 0.351561 3.910284 -5.147166 -7.386891 -4.346480 0.000002 -0.000001 0.000001 
-3.525343 99.448151 -5.173690 4.343468 5.100404 -5.195563 1.331204 -0.930756 0.421667 0.788757 -4.182480 6.025191 -1.982301 -0.172255 -0.977233 2.191405 -5.126413 3.459710 0.000000 -0.000001 0.000001 4.852941 0.201200 12.674453 -1.481826 13.112243 6.970701 -52.796727 25.633003 -13.106404 -0.000000 -0.000005 0.000003 1.874527 -5.816065 0.410628 10.054947 -11.233000 -3.008154 32.406399 21.834848 -25.263509 -0.000004 -0.000001 0.000003 -1.725027 1.751379 8.513492 4.015705 -4.566877 -26.633597 2.572759 -21.444692 -10.613066 0.000003 0.000002 -0.000002 -14.032397 1.756775 5.876489 14.910766 0.489036 3.997328 -5.493726 -7.792748 -4.578553 -0.000001 0.000001 0.000001 
-3.510244 99.418938 -5.206400 3.954770 5.768781 -5.148302 1.736923 -1.085440 0.702667 -0.312642 -4.165837 6.123316 -1.390570 -0.722499 -1.264172 2.223287 -5.247105 3.626222 -0.000001 0.000001 0.000001 5.028534 0.267640 12.848741 -1.402413 12.938933 6.878642 -53.557730 26.053007 -13.248390 -0.000002 -0.000002 0.000001 1.940398 -5.966332 0.580617 9.898624 -11.104816 -2.966710 33.688358 22.488922 -26.232414 -0.000002 0.000001 -0.000002 -1.618708 1.720149 8.372065 4.165919 -4.940588 -26.792293 2.906750 -22.045887 -10.885099 -0.000000 0.000005 0.000002 -13.453380 1.677521 5.890140 14.843898 0.593749 3.839948 -5.465966 -7.610916 -4.502396 0.000003 -0.000000 0.000000 
-3.496760 99.397232 -5.237919 4.102090 5.654637 -5.078475 1.623965 -1.049251 0.702229 -0.113881 -4.093086 6.116688 -1.698178 -0.510623 -1.195874 2.124234 -5.234014 3.913072 -0.000001 0.000001 0.000000 5.006373 0.415716 12.910511 -1.241364 12.722955 7.087127 -54.056193 26.710963 -13.266078 -0.000001 0.000001 -0.000001 1.992047 -6.054030 0.603043 9.658390 -10.590625 -3.059704 34.188368 22.005988 -25.867984 -0.000002 0.000000 0.000002 -1.522135 1.742790 8.576122 3.682736 -4.887663 -27.360783 3.274874 -21.988831 -10.770308 -0.000003 -0.000000 0.000004 -13.881893 1.754188 5.835236 15.108121 0.887507 3.787419 -5.266159 -7.507273 -4.243608 0.000000 -0.000003 -0.000000 
-3.484413 99.369362 -5.261799 4.029473 6.214700 -5.097304 1.641233 -1.086017 0.778051 -0.397068 -4.117044 6.206318 -1.528109 -0.599079 -1.275286 2.012337 -5.402517 4.178465 -0.000001 0.000000 0.000002 5.068975 0.558166 13.067772 -1.292564 12.883963 7.026937 -56.068555 27.471356 -13.288242 -0.000001 -0.000000 0.000000 1.988360 -6.704428 0.728236 9.733569 -10.668222 -3.025252 33.897167 22.592306 -26.513857 -0.000000 -0.000003 0.000003 -1.391039 1.766235 8.571120 4.505170 -5.599845 -27.105391 3.182375 -22.147433 -10.955899 0.000003 0.000002 -0.000001 -14.215937 1.756482 5.977616 14.981999 0.973372 3.583851 -6.187791 -7.694129 -4.362271 0.000000 -0.000003 -0.000000 
